<svg xmlns="http://www.w3.org/2000/svg" aria-hidden="true" style="position:absolute;width:0;height:0;overflow:hidden">
  <defs>
    <symbol id="mail" viewBox="0 0 24 24">
      <path d="M20 4H4c-1.1 0-1.99.9-1.99 2L2 18c0 1.1.9 2 2 2h16c1.1 0 2-.9 2-2V6c0-1.1-.9-2-2-2zm0 4l-8 5-8-5V6l8 5 8-5v2z"/>
    </symbol>
    
    <symbol id="location" viewBox="0 0 24 24">
      <path d="M12 2C8.13 2 5 5.13 5 9c0 5.25 7 13 7 13s7-7.75 7-13c0-3.87-3.13-7-7-7zm0 9.5c-1.38 0-2.5-1.12-2.5-2.5s1.12-2.5 2.5-2.5 2.5 1.12 2.5 2.5-1.12 2.5-2.5 2.5z"/>
    </symbol>
    
    <symbol id="mobile" viewBox="0 0 24 24">
      <path d="M17 1.01L7 1c-1.1 0-2 .9-2 2v18c0 1.1.9 2 2 2h10c1.1 0 2-.9 2-2V3c0-1.1-.9-1.99-2-1.99zM17 19H7V5h10v14z"/>
    </symbol>
    
    <symbol id="linkedin" viewBox="0 0 24 24">
      <path d="M19 3a2 2 0 0 1 2 2v14a2 2 0 0 1-2 2H5a2 2 0 0 1-2-2V5a2 2 0 0 1 2-2h14m-.5 15.5v-5.3a3.26 3.26 0 0 0-3.26-3.26c-.85 0-1.84.52-2.32 1.3v-1.11h-2.79v8.37h2.79v-4.93c0-.77.62-1.4 1.39-1.4a1.4 1.4 0 0 1 1.4 1.4v4.93h2.79M6.88 8.56a1.68 1.68 0 0 0 1.68-1.68c0-.93-.75-1.69-1.68-1.69a1.69 1.69 0 0 0-1.69 1.69c0 .93.76 1.68 1.69 1.68m1.39 9.94v-8.37H5.5v8.37h2.77z"/>
    </symbol>
    
   <symbol id="telegram" viewBox="0 0 32 32"><path d="M29.333 16c0 7.364-5.97 13.333-13.333 13.333S2.667 23.363 2.667 16C2.667 8.636 8.637 2.667 16 2.667S29.333 8.637 29.333 16zm-12.855-3.49c-1.297.539-3.889 1.656-7.776 3.349-.631.251-.962.497-.992.737-.051.406.457.566 1.149.783.094.03.192.06.292.093.681.221 1.597.48 2.073.491.432.009.914-.169 1.446-.534 3.632-2.451 5.506-3.691 5.624-3.717.083-.019.198-.043.276.027s.07.201.062.236c-.05.215-2.045 2.069-3.077 3.029-.322.299-.55.511-.597.56-.105.109-.211.211-.313.31-.632.61-1.107 1.067.026 1.814.545.359.98.655 1.415.951.475.323.948.646 1.561 1.047.156.102.305.209.45.312.552.394 1.049.748 1.662.691.356-.033.724-.368.911-1.367.442-2.361 1.31-7.478 1.511-9.586.018-.185-.005-.421-.022-.525s-.055-.252-.19-.361c-.16-.13-.406-.157-.517-.155-.501.009-1.271.276-4.974 1.817z"/></symbol>
    
    <symbol id="github" viewBox="0 0 24 24">
      <path d="M12 2A10 10 0 0 0 2 12c0 4.42 2.87 8.17 6.84 9.5.5.08.66-.23.66-.5v-1.69c-2.77.6-3.36-1.34-3.36-1.34-.46-1.16-1.11-1.47-1.11-1.47-.91-.62.07-.6.07-.6 1 .07 1.53 1.03 1.53 1.03.87 1.52 2.34 1.07 2.91.83.09-.65.35-1.09.63-1.34-2.22-.25-4.55-1.11-4.55-4.92 0-1.11.38-2 1.03-2.71-.1-.25-.45-1.29.1-2.64 0 0 .84-.27 2.75 1.02.79-.22 1.65-.33 2.5-.33.85 0 1.71.11 2.5.33 1.91-1.29 2.75-1.02 2.75-1.02.55 1.35.2 2.39.1 2.64.65.71 1.03 1.6 1.03 2.71 0 3.82-2.34 4.66-4.57 4.91.36.31.69.92.69 1.85V21c0 .27.16.59.67.5C19.14 20.16 22 16.42 22 12A10 10 0 0 0 12 2z"/>
    </symbol>
  </defs>
</svg>